<?xml version="1.0" encoding="utf-8"?>
<!-- Generator: Adobe Illustrator 15.1.0, SVG Export Plug-In . SVG Version: 6.00 Build 0)  -->
<!DOCTYPE svg PUBLIC "-//W3C//DTD SVG 1.1//EN" "http://www.w3.org/Graphics/SVG/1.1/DTD/svg11.dtd">
<svg version="1.1" id="Layer_1" xmlns="http://www.w3.org/2000/svg" xmlns:xlink="http://www.w3.org/1999/xlink" x="0px" y="0px"
	 width="400px" height="291px" viewBox="181.5 150.5 400 291" enable-background="new 181.5 150.5 400 291" xml:space="preserve">
<path fill="#4B5156" d="M226.06,167.895c11.589-1.471,28.151-0.406,41.462-0.406c67.112,0,136.361,0,204.058,0
	c16.513,0,27.398,0,40.648,0c12.779,0,32.892-1.399,41.462,3.252c18.892,10.251,17.927,39.402-2.847,47.152
	c-8.805,3.285-26.707,1.626-40.243,1.626c-84.297,0-165.099,0-249.583,0c-13.577,0-33.481,1.847-42.275-2.032
	C194.972,207,200.215,171.175,226.06,167.895z"/>
<path fill="#4B5156" d="M226.06,271.956c11.589-1.471,28.151-0.406,41.462-0.406c67.112,0,136.361,0,204.058,0
	c16.513,0,27.398,0,40.648,0c12.779,0,32.892-1.399,41.462,3.252c18.891,10.251,17.929,39.401-2.847,47.152
	c-8.805,3.285-26.707,1.626-40.243,1.626c-84.297,0-165.099,0-249.583,0c-13.577,0-33.481,1.847-42.275-2.032
	C194.971,311.062,200.216,275.236,226.06,271.956z"/>
<path fill="#4B5156" d="M226.06,376.018c11.589-1.472,28.151-0.405,41.462-0.405c67.113,0,136.359,0,204.058,0
	c16.513,0,27.398,0,40.648,0c12.782,0,32.896-1.396,41.462,3.252c18.891,10.252,17.93,39.4-2.847,47.151
	c-8.805,3.285-26.707,1.626-40.243,1.626c-84.297,0-165.099,0-249.583,0c-13.577,0-33.481,1.849-42.275-2.03
	C194.971,415.123,200.216,379.298,226.06,376.018z"/>
</svg>
